<svg xmlns="http://www.w3.org/2000/svg" xmlns:xlink="http://www.w3.org/1999/xlink" viewBox="0 0 137.33 23.04"><defs><style>.cls-1{fill:none;clip-rule:evenodd;}.cls-2{clip-path:url(#clip-path);}.cls-3{fill:url(#linear-gradient);}.cls-4{fill:#0a5f25;}.cls-5{fill:#231f20;}</style><clipPath id="clip-path" transform="translate(0 0.06)"><path class="cls-1" d="M21.92,20.92a2.71,2.71,0,0,0,.59.08c.21,0,.4,0,.64,0s1.55-.1,2-.16a10.39,10.39,0,0,1,1.12,0c.21,0,.35.06.53.06a.92.92,0,0,0-.16-.31,2.7,2.7,0,0,0-1-.91.58.58,0,0,0-.35-.09s-.9.51-1.24.65a6.9,6.9,0,0,1-.66.28,5.57,5.57,0,0,1-1.32.34.21.21,0,0,0-.18.06m-16.51,0c.17,0,.31-.06.52-.06A12.22,12.22,0,0,1,7.74,21c.32,0,.54,0,.84.06l.56,0a8.67,8.67,0,0,0,1.25-.12.18.18,0,0,0-.16-.06,4.23,4.23,0,0,1-.62-.11,2.66,2.66,0,0,1-.38-.1A10.13,10.13,0,0,1,7.71,20a.2.2,0,0,1-.08,0l-.69-.38c-.17-.08-.53.14-.67.24a2.85,2.85,0,0,0-.59.61C5.6,20.55,5.41,20.78,5.41,20.9Zm14.85-1a5.14,5.14,0,0,0,.95-.35l.31-.13a13.22,13.22,0,0,0,2.76-1.62,6.78,6.78,0,0,0,.69-.62l.21-.23a3.44,3.44,0,0,0,.54-.77l.7-1.49c.12-.27.79-1.73.79-1.86s-1,0-1,0a4.37,4.37,0,0,0-.67.2l-.14.06-.46.2a7.21,7.21,0,0,0-1,.69c-.08.07-.16.12-.23.19a8.82,8.82,0,0,0-1.25,1.35L21.48,17l-.08.15a12.23,12.23,0,0,0-.72,1.45,4.67,4.67,0,0,0-.24.62A4.57,4.57,0,0,0,20.26,19.87Zm-8.18,0a4.61,4.61,0,0,0-.3-1,15,15,0,0,0-1.71-3.09A10,10,0,0,0,8.85,14.4L8.38,14a4.87,4.87,0,0,0-.52-.37L6.7,13.06A4.28,4.28,0,0,0,5,12.76c-.11,0,0,.13,0,.28s.09.2.14.31l.54,1.22c.1.21.19.42.29.62a5.9,5.9,0,0,0,1,1.78h0l.35.35a11.08,11.08,0,0,0,1.27,1l.85.5c.39.21.79.4,1.21.58l.31.14.31.12A2.73,2.73,0,0,0,12.08,19.87Zm9.18-3.45c.08,0,.24-.32.29-.39l.14-.21.6-.78c.21-.26.43-.5.65-.74l.62-.61.67-.55c.14-.11.27-.19.41-.29s.29-.19.44-.27A6.39,6.39,0,0,1,26.27,12a5.74,5.74,0,0,1,1.84-.27,3.45,3.45,0,0,1,1,.16c0,.07,0,.05-.07.08a3.51,3.51,0,0,0-.47.55l-.24.34-.24.37c-.33.55-.66,1.11-.95,1.68a9.42,9.42,0,0,1-1.18,1.75l-.73.77a10.92,10.92,0,0,1-2,1.52,14.29,14.29,0,0,1-2.4,1.14l-1.56.48c-.09,0-.18,0-.22.09a3.8,3.8,0,0,0,.4.06l.68,0c.24,0,.29.12.47.26a6.88,6.88,0,0,0,1.67.94,5.48,5.48,0,0,0,.92.29,8.76,8.76,0,0,0,1.71.19c.32,0,.6,0,.92,0l1.05,0c.28,0,.51,0,.78,0a8.33,8.33,0,0,1,1.12.11,3.68,3.68,0,0,1,.81.19.48.48,0,0,0,.18.05,3.46,3.46,0,0,0-.21-.78,5.42,5.42,0,0,0-.29-.7,8.54,8.54,0,0,0-.63-1.09,4.09,4.09,0,0,0-.58-.66,3.69,3.69,0,0,0-1.22-.76,2.91,2.91,0,0,0-.81-.19c.11-.17.32-.27.46-.41l1-1a.58.58,0,0,0,.1-.12,5.14,5.14,0,0,0,.59-.72,9.39,9.39,0,0,0,.76-1.17,16.55,16.55,0,0,1,1.38-2.07l.6-.71.11-.11a11.77,11.77,0,0,1,.86-.87l.45-.41L32,10.88l-.16-.08a5.21,5.21,0,0,0-.94-.32,7.67,7.67,0,0,0-3.37-.07,8.46,8.46,0,0,0-2,.63l-.71.38-1,.74a1.14,1.14,0,0,0-.11.11c-.05.05-.08.05-.12.1l-.11.11a7,7,0,0,0-1.08,1.34L22.3,14a8.58,8.58,0,0,0-.54,1A5.22,5.22,0,0,0,21.26,16.42Zm-.68,4.36a7.52,7.52,0,0,0,1.47-.2c.23-.06.45-.11.66-.18a9.92,9.92,0,0,0,2-.92L25.5,19a1.3,1.3,0,0,1,.4.18,4.38,4.38,0,0,1,.73.48c.06.05.09.09.16.14a1.92,1.92,0,0,1,.28.3,3.37,3.37,0,0,1,.72,1.39.53.53,0,0,1-.19,0,7.65,7.65,0,0,0-2.14,0c-.43,0-.77.08-1.25.08a8.5,8.5,0,0,1-2-.24,11.42,11.42,0,0,1-1.47-.45C20.69,20.84,20.62,20.83,20.58,20.78ZM0,11.09c.07,0,.06,0,.12.08l.12.11.11.09c.29.28.59.55.87.85l.41.46c.21.27.46.54.67.83l.19.26c.23.34.49.67.69,1l.47.81a12.6,12.6,0,0,0,.91,1.26l.3.34c.22.25.5.55.74.77l.58.5c.05,0,.09.05.11.12a3,3,0,0,0-1.08.3,3.2,3.2,0,0,0-.54.32,5.7,5.7,0,0,0-1.93,2.82l-.17.54c-.08.38,0,.09.91,0l.62-.08c.47,0,1-.06,1.45-.06l.94,0a11.2,11.2,0,0,0,1.83,0l.42-.06a7.6,7.6,0,0,0,1.82-.58,10,10,0,0,0,.9-.52,5.66,5.66,0,0,0,.54-.43c.1-.08.27,0,.43-.05a5.67,5.67,0,0,0,.87-.09c0-.06-.12-.07-.2-.09l-.24-.06-.45-.13-1.09-.37L11.09,20l-.19-.08a13.6,13.6,0,0,1-2.49-1.35L7.73,18l-.31-.27A10.93,10.93,0,0,1,6,16.23a11.51,11.51,0,0,1-.91-1.46,14.65,14.65,0,0,0-1.45-2.36c-.13-.17-.37-.38-.43-.48a3.83,3.83,0,0,1,1.32-.16,4.36,4.36,0,0,1,1.2.19,7.69,7.69,0,0,1,1.14.43,8.73,8.73,0,0,1,2,1.36c.17.18.35.33.52.52l.18.18.4.46A.7.7,0,0,1,10,15a13.54,13.54,0,0,1,1,1.32c0,.06,0,.07.1.09a1.28,1.28,0,0,0-.08-.35c0-.1-.07-.22-.11-.33a9.24,9.24,0,0,0-.61-1.36,9.1,9.1,0,0,0-.59-.93,5.59,5.59,0,0,0-.48-.61A8.07,8.07,0,0,0,8.3,12l-.37-.28A7.46,7.46,0,0,0,6.67,11L6.2,10.8l-.32-.11-.16,0a8,8,0,0,0-4.29-.17A7,7,0,0,0,.13,11C.05,11,0,11,0,11.09ZM8.1,21.56c-.46,0-.82,0-1.23-.08a8,8,0,0,0-2.18,0l-.19,0a3.3,3.3,0,0,1,.58-1.21l.13-.17c0-.06.1-.09.15-.16l.3-.28L6,19.4A4.26,4.26,0,0,1,6.79,19a5.26,5.26,0,0,1,.52.32A7.59,7.59,0,0,0,8,19.7c.06,0,.07.05.14.08l.14.07a8.81,8.81,0,0,0,3.51.93,1.38,1.38,0,0,1-.39.16A9.89,9.89,0,0,1,8.1,21.56Zm1.42-12,0,.89c0,.08,0,.15,0,.23a5.53,5.53,0,0,0,.5,1.45c.12.22.22.44.34.65l.36.6.19.29.29.46.1.14,2,2.94.35.63a10,10,0,0,1,.46,1,4.37,4.37,0,0,1,.27,2.35,1.05,1.05,0,0,0,0,.21c.17-.05.38-.47.43-.61.48-1.19-.14-2.67-.61-3.73l-.3-.61c-.3-.6-.63-1.19-1-1.76l-.25-.42c-.28-.47-.6-.92-.86-1.4l-.08-.14a7.23,7.23,0,0,1-.42-.95c-.08-.23-.16-.43-.23-.68a6,6,0,0,1-.17-.73l-.06-.4a4.48,4.48,0,0,1-.06-.63V9.09a6.07,6.07,0,0,1,0-.85A7.41,7.41,0,0,1,11,7.08a5.05,5.05,0,0,1,.22-.69,7.17,7.17,0,0,1,.95-1.75A7.62,7.62,0,0,1,13.89,3l.15-.1a9.6,9.6,0,0,1,2.79-1.3,1.54,1.54,0,0,1,.37-.09c0,.14,0,.19,0,.34,0,.49,0,.74.06,1.22l.1.55a1.25,1.25,0,0,0,0,.19l.38,1.35a11.93,11.93,0,0,0,.8,1.79l.32.54a7.16,7.16,0,0,0,.72,1l.61.68a4.31,4.31,0,0,1,1,2.88,4.72,4.72,0,0,1-.1,1,7,7,0,0,1-.6,1.74,1.66,1.66,0,0,1-.39.47,4.37,4.37,0,0,1,.24-.55c.08-.21.13-.39.2-.6a5.46,5.46,0,0,0,.23-1.38,5.32,5.32,0,0,0-.25-1.87,6.64,6.64,0,0,0-.79-1.63l-.72-.9L19,8.13l-.28-.33a2,2,0,0,0-.19-.22l-.18-.22c-.24-.3-.48-.6-.69-.92s-.21-.34-.31-.51,0-.08-.07-.14a5.71,5.71,0,0,1-.57-2.06,9.69,9.69,0,0,1,0-1.08c0-.21.07-.23-.36,0l-.48.27A11.24,11.24,0,0,0,14.28,4c-.17.16-.66.56-.79.72L13,5.34a7,7,0,0,0-1.34,2.44,5,5,0,0,0-.21,1.6,5.48,5.48,0,0,0,.1.87,8.37,8.37,0,0,0,1,2.43l.49,1c.35.7.8,1.55,1.11,2.28l.08.16.37.84c.39.88,1.05,2.45.73,3.43a.29.29,0,0,0,0,.09c0,.11-.07.2.07.1l1.09-.85.13-.11.77-.68.12-.12.72-.72.11-.13.12-.12.33-.4.11-.13a8.76,8.76,0,0,0,.63-.84c.18-.3.38-.59.54-.9a.64.64,0,0,1,.21-.27,1.42,1.42,0,0,0,.25-.24,4.48,4.48,0,0,0,.65-.79,4.31,4.31,0,0,0,.5-1l.13-.35c0-.13.07-.26.1-.39a4.92,4.92,0,0,0-.26-2.87,5.37,5.37,0,0,0-.77-1.31l-.72-1c-.12-.18-.21-.35-.32-.53s-.19-.34-.29-.53a11,11,0,0,1-1.19-4.67,8.14,8.14,0,0,1,0-.87c.11-.83.27-.86-.11-.76a19.47,19.47,0,0,0-2.29.83l-.2.1-2,1.13-.19.13c-.24.18-.49.36-.72.56l-.16.13a9.19,9.19,0,0,0-.94.93L11.55,4l-.79,1.08-.23.42a1.6,1.6,0,0,0-.11.19,8.68,8.68,0,0,0-.6,1.59,9.55,9.55,0,0,0-.21,1c0,.18,0,.36,0,.57A5.49,5.49,0,0,0,9.52,9.52Z"/></clipPath><linearGradient id="linear-gradient" x1="15.85" y1="22.85" x2="16.42" y2="0.06" gradientUnits="userSpaceOnUse"><stop offset="0" stop-color="#85c441"/><stop offset="1" stop-color="#99ca3c"/></linearGradient></defs><g id="Layer_2" data-name="Layer 2"><g id="Layer_1-2" data-name="Layer 1"><g class="cls-2"><rect class="cls-3" width="32.27" height="23.04"/></g><path class="cls-4" d="M57,8.09h2.09v.59H58.9a.54.54,0,0,0-.22,0,.24.24,0,0,0-.08.09.69.69,0,0,0,0,.24v2.35a.66.66,0,0,0,0,.24.11.11,0,0,0,.07.08.34.34,0,0,0,.19,0h.23v.58H57v-.58h.17a.62.62,0,0,0,.24,0,.16.16,0,0,0,.08-.08.54.54,0,0,0,0-.22V9.06a.72.72,0,0,0,0-.26.21.21,0,0,0-.09-.1.73.73,0,0,0-.21,0H57Zm-1.07,0,.37,1.42-.57.16a2.18,2.18,0,0,0-.65-.74,1.44,1.44,0,0,0-.77-.23.73.73,0,0,0-.42.1.3.3,0,0,0-.15.24.36.36,0,0,0,.14.28,1.31,1.31,0,0,0,.49.23l.83.23a2.19,2.19,0,0,1,1,.52,1.11,1.11,0,0,1,.28.75A1.15,1.15,0,0,1,56,12a1.84,1.84,0,0,1-1.23.42,2.53,2.53,0,0,1-.63-.08,2.29,2.29,0,0,1-.59-.29l-.14.3H53l-.31-1.64.58-.14a1.88,1.88,0,0,0,.63.84,1.45,1.45,0,0,0,.94.34,1,1,0,0,0,.38-.06.5.5,0,0,0,.23-.16.37.37,0,0,0,.08-.21.38.38,0,0,0-.18-.32,2.19,2.19,0,0,0-.63-.26l-.72-.2a4.08,4.08,0,0,1-.44-.17,2,2,0,0,1-.43-.27,1.16,1.16,0,0,1-.34-.8A1.08,1.08,0,0,1,53,8.66a1.28,1.28,0,0,1,.57-.46A1.92,1.92,0,0,1,54.37,8a1.83,1.83,0,0,1,1,.29l.12-.22Zm-6.51,2.29h.85l-.42-1.16Zm.12-2.29h1l1.28,3.28a1.07,1.07,0,0,0,.19.32.54.54,0,0,0,.3.06v.58h-2v-.58h.12a.45.45,0,0,0,.24,0,.12.12,0,0,0,.07-.11.91.91,0,0,0-.06-.22L50.49,11h-1.3l-.16.43a.85.85,0,0,0-.05.18.16.16,0,0,0,0,.09l.12.06h.29v.58H47.76v-.58a.63.63,0,0,0,.23,0,.25.25,0,0,0,.12-.08.71.71,0,0,0,.11-.2Zm-7.83,0H43.6v.59h-.22l-.08.05a.17.17,0,0,0,0,.1.77.77,0,0,0,0,.19l.57,2.19.5-1.55L44.18,9l0-.07A.42.42,0,0,0,44,8.75a.37.37,0,0,0-.23-.07V8.09H45.6v.59h-.14a.45.45,0,0,0-.21,0,.18.18,0,0,0-.06.14,1.07,1.07,0,0,0,0,.23L45.74,11l.53-1.95a1.75,1.75,0,0,0,.06-.25.11.11,0,0,0-.06-.11s-.1,0-.21,0h-.15V8.09h1.63v.59a.73.73,0,0,0-.25,0,.35.35,0,0,0-.13.11,1.15,1.15,0,0,0-.12.31l-.95,3.2h-.93l-.5-1.69-.54,1.69h-1l-1-3.25a.94.94,0,0,0-.11-.27.22.22,0,0,0-.13-.1.73.73,0,0,0-.25,0Zm-.91,0,.37,1.42-.57.16A2.18,2.18,0,0,0,40,8.93a1.44,1.44,0,0,0-.77-.23.75.75,0,0,0-.42.1.3.3,0,0,0-.15.24.4.4,0,0,0,.14.28,1.38,1.38,0,0,0,.5.23l.82.23a2.13,2.13,0,0,1,1,.52,1.12,1.12,0,0,1,.29.75,1.16,1.16,0,0,1-.45.93,1.81,1.81,0,0,1-1.22.42,2.47,2.47,0,0,1-.63-.08,2.34,2.34,0,0,1-.6-.29l-.13.3h-.46l-.3-1.64.57-.14a2,2,0,0,0,.63.84,1.47,1.47,0,0,0,.94.34,1.1,1.1,0,0,0,.39-.06.47.47,0,0,0,.22-.16.31.31,0,0,0,.08-.21A.38.38,0,0,0,40.2,11a2.19,2.19,0,0,0-.63-.26l-.71-.2a3.41,3.41,0,0,1-.44-.17,1.78,1.78,0,0,1-.43-.27,1.16,1.16,0,0,1-.25-.35,1,1,0,0,1-.1-.45,1.08,1.08,0,0,1,.19-.62,1.4,1.4,0,0,1,.57-.46A1.92,1.92,0,0,1,39.24,8a1.83,1.83,0,0,1,1,.29l.12-.22Z" transform="translate(0 0.06)"/><path class="cls-4" d="M134.05,8.5l.35.05c.17,0,.2.11.21.38s0,.55,0,1.23c0,.84,0,1.46,0,1.64s-.05.22-.2.26a3,3,0,0,1-.42.06.21.21,0,0,0,0,.19l.92,0,1.84,0c.18,0,.24,0,.27-.09a6.39,6.39,0,0,0,.33-1.07.26.26,0,0,0-.19-.07,4.14,4.14,0,0,1-.38.71.49.49,0,0,1-.38.24,5.72,5.72,0,0,1-1.07-.06.21.21,0,0,1-.13-.18c0-.27,0-.8,0-1.6,0-.61,0-1.16,0-1.39s0-.22.18-.26l.32-.05s0-.16,0-.18-.36,0-.79,0-.64,0-.82,0,0,.15,0,.18m-2.43.5c.1.28.35,1,.48,1.39a0,0,0,0,1,0,0h-1s0,0,0,0c.11-.34.37-1.06.48-1.38A0,0,0,0,1,131.62,9Zm-2,3.12a.31.31,0,0,0,0,.19c.12,0,.32,0,.69,0l.82,0a.31.31,0,0,0,0-.19,1.68,1.68,0,0,1-.3,0c-.2-.05-.22-.12-.21-.23a7,7,0,0,1,.35-1,.09.09,0,0,1,.06-.06h1.14a.11.11,0,0,1,.06,0c.11.29.3.83.38,1.11a.12.12,0,0,1-.07.16l-.35.07a.25.25,0,0,0,0,.19l.85,0,.78,0s0-.17,0-.19c-.46-.06-.51-.09-.69-.52S132.2,9,132.07,8.67c0-.12-.08-.24-.1-.33h-.43a1.66,1.66,0,0,1-.1.36c-.15.41-.75,2-1.08,2.82C130.15,12,130.07,12.06,129.61,12.12Zm-.61,0a3.09,3.09,0,0,1-.44-.07c-.15,0-.2-.12-.22-.34s0-2.11,0-3.05c0,0,0-.05,0-.05h.9a.25.25,0,0,1,.25.18,2.36,2.36,0,0,1,.1.57.23.23,0,0,0,.2,0c0-.35.09-.86.15-1.09l-.06,0a1.41,1.41,0,0,1-.63.1H126.9a1.11,1.11,0,0,1-.52-.1s-.07,0-.07,0c0,.28-.08.79-.13,1.06,0,0,.17.08.2.06a3.39,3.39,0,0,1,.25-.6.31.31,0,0,1,.27-.18h.83a0,0,0,0,1,0,.05c0,1.07,0,2.44,0,2.94,0,.3,0,.43-.25.47l-.45.06a.25.25,0,0,0,0,.19l1,0,.95,0A.25.25,0,0,0,129,12.12ZM124,8.5a1.52,1.52,0,0,1,.39.07c.14,0,.15.13.16.29s0,.72,0,1.25c0,.84,0,1.5,0,1.68s0,.24-.23.28a2.12,2.12,0,0,1-.33,0s0,.17,0,.19l.89,0,.83,0a.21.21,0,0,0,0-.19l-.38-.06c-.19-.05-.21-.16-.22-.35s0-.84,0-1.47,0-1.1,0-1.37,0-.28.19-.32l.32-.05a.28.28,0,0,0,0-.18l-.8,0-.83,0S124,8.47,124,8.5Zm-2.19,2.18a.8.8,0,0,0,.28,0,1.38,1.38,0,0,0,.67-.16,1.2,1.2,0,0,0,.68-1.12,1,1,0,0,0-.39-.86,1.48,1.48,0,0,0-.86-.25l-1,0-.76,0a.22.22,0,0,0,0,.18,1.82,1.82,0,0,1,.31.05c.18,0,.22.11.24.34s0,.63,0,1.37,0,1.22,0,1.44,0,.33-.2.37l-.34.06a.23.23,0,0,0,0,.18l.84,0,.89,0a.25.25,0,0,0,0-.19,2.77,2.77,0,0,1-.38-.06c-.18,0-.22-.09-.24-.33s0-.81,0-1.54c0-1,0-1.38,0-1.53a.13.13,0,0,1,0-.09,1.06,1.06,0,0,1,.27,0,.92.92,0,0,1,1,1,.86.86,0,0,1-.4.83.82.82,0,0,1-.44.1l-.26,0s0,0,0,.06A.37.37,0,0,0,121.84,10.68Zm-4.36.5a.25.25,0,0,0-.2.06,5.7,5.7,0,0,0,.18,1,2.34,2.34,0,0,0,.93.2,1.27,1.27,0,0,0,1.43-1.19,1.1,1.1,0,0,0-.62-1c-.22-.13-.54-.28-.8-.45a.8.8,0,0,1-.43-.73.65.65,0,0,1,.67-.65.9.9,0,0,1,.52.13c.15.1.21.28.25.66a.21.21,0,0,0,.19,0,6.18,6.18,0,0,1,.11-.88,5.31,5.31,0,0,0-1-.12,1.14,1.14,0,0,0-1.27,1.09c0,.57.39.89,1,1.22s.84.54.84,1a.64.64,0,0,1-.68.67A1,1,0,0,1,118,12,1.4,1.4,0,0,1,117.48,11.18Zm-2.76.94a1.42,1.42,0,0,1-.8-.22,2.09,2.09,0,0,1-.82-1.77,1.66,1.66,0,0,1,.69-1.51,1.16,1.16,0,0,1,.58-.14,1.44,1.44,0,0,1,.84.25,2.09,2.09,0,0,1,.74,1.72,1.8,1.8,0,0,1-.54,1.44A1,1,0,0,1,114.72,12.12Zm-.25.28a2.07,2.07,0,0,0,1.69-.84,2.12,2.12,0,0,0,.4-1.34,1.9,1.9,0,0,0-2-2,2.19,2.19,0,0,0-1.71.82,2,2,0,0,0-.4,1.24,2.28,2.28,0,0,0,.55,1.54A2,2,0,0,0,114.47,12.4Zm-7.1-3.9a1.52,1.52,0,0,1,.39.07c.13,0,.17.1.18.28s0,.8,0,1.42,0,1.1,0,1.32,0,.41-.22.47l-.35.06a.25.25,0,0,0,0,.19l.85,0,.84,0s.05-.16,0-.19l-.38-.08c-.16,0-.19-.13-.2-.35s0-.88,0-1.23c0,0,0,0,0,0h2.12s0,0,0,.05c0,.4,0,1.1,0,1.29s0,.26-.17.3a2.22,2.22,0,0,1-.36.06.21.21,0,0,0,0,.19l.81,0,.86,0s0-.16,0-.19a2,2,0,0,1-.41-.07c-.13,0-.16-.11-.18-.29s0-.93,0-1.48c0-.77,0-1.15,0-1.37s0-.3.18-.35a1.8,1.8,0,0,1,.33-.06.23.23,0,0,0,0-.18l-.8,0c-.34,0-.65,0-.8,0a.21.21,0,0,0,0,.19,1.43,1.43,0,0,1,.38.07.2.2,0,0,1,.13.21c0,.23,0,1,0,1.29,0,0,0,0,0,0h-2.1a.08.08,0,0,1,0-.07c0-.63,0-.95,0-1.19s0-.26.18-.3L109,8.5a.28.28,0,0,0,0-.18c-.18,0-.37,0-.8,0l-.82,0S107.35,8.47,107.37,8.5Zm-4.88,0,.34.06c.16,0,.18.1.2.33v2.83c0,.22-.07.31-.22.35a4.08,4.08,0,0,1-.49.06.21.21,0,0,0,0,.19l1,0,1.67,0c.32,0,.36,0,.4-.1a4.06,4.06,0,0,0,.27-.88.34.34,0,0,0-.19-.07,2.11,2.11,0,0,1-.32.56.49.49,0,0,1-.47.22,8.31,8.31,0,0,1-1,0,.26.26,0,0,1-.15-.25c0-.31,0-1,0-1.28,0,0,0-.05,0-.05.24,0,.77,0,1,0a.23.23,0,0,1,.22.19,1,1,0,0,1,0,.26.24.24,0,0,0,.22,0c0-.16,0-.34,0-.58a4.64,4.64,0,0,1,0-.61s-.17,0-.21,0a1.49,1.49,0,0,1-.07.25.23.23,0,0,1-.22.19c-.23,0-.72,0-1,0,0,0,0,0,0-.05V8.72s0-.11.08-.12h1c.21,0,.27.09.32.24a1.52,1.52,0,0,1,.07.39s.18,0,.2,0a6.7,6.7,0,0,1,.12-.88l0,0a6.75,6.75,0,0,1-.71,0h-1.26c-.36,0-.7,0-.86,0A.19.19,0,0,0,102.49,8.49Zm-2.75,0a.87.87,0,0,1,1,1,.75.75,0,0,1-.42.74,2.43,2.43,0,0,1-.83,0,0,0,0,0,1,0,0c0-.5,0-1.37,0-1.59a.19.19,0,0,1,0-.1A.89.89,0,0,1,99.74,8.54Zm-1.39,0,.34.05c.17,0,.21.11.22.29v1.5c0,.35,0,1.23,0,1.37s-.06.33-.22.36l-.33,0a.21.21,0,0,0,0,.19c.13,0,.4,0,.82,0l.85,0a.19.19,0,0,0,0-.19l-.36-.06c-.15,0-.19-.09-.21-.31s0-.81,0-1.16c0,0,0,0,0,0h.45a.21.21,0,0,1,.16.09c.25.35.64,1,.88,1.28a.78.78,0,0,0,.31.26,2.7,2.7,0,0,0,1,.12s.05-.16,0-.18a.93.93,0,0,1-.74-.35,10.56,10.56,0,0,1-1.05-1.39s0,0,0,0a1.13,1.13,0,0,0,.74-1,1,1,0,0,0-1.15-1l-1.07,0-.74,0S98.32,8.47,98.35,8.5Zm-4.69,0a2.12,2.12,0,0,1,.34.06c.13,0,.17.15.18.31,0,.33,0,2,0,2.37.08.7.53,1.16,1.55,1.16a1.43,1.43,0,0,0,1.55-1.13A12.75,12.75,0,0,0,97.46,9c0-.31,0-.43.23-.48A1.56,1.56,0,0,1,98,8.5s0-.16,0-.18l-.69,0-.77,0a.27.27,0,0,0,0,.18l.33.05c.21,0,.29.13.29.45,0,.65,0,1.37,0,1.86C97,11.88,96.52,12,96,12a1.08,1.08,0,0,1-1.11-.65,2,2,0,0,1-.13-.66c0-.34,0-1.21,0-1.84,0-.22,0-.29.19-.34l.3-.05a.19.19,0,0,0,0-.18l-.76,0-.81,0S93.64,8.48,93.66,8.5Zm-.89.85s.17,0,.2,0a7,7,0,0,1,.1-1,11.46,11.46,0,0,0-1.27-.13,2.6,2.6,0,0,0-1.3.3,1.92,1.92,0,0,0-1,1.76,2,2,0,0,0,2.23,2.12,3.2,3.2,0,0,0,1-.16,2.05,2.05,0,0,0,.49-.87.31.31,0,0,0-.16-.1,2.29,2.29,0,0,1-.48.63,1.06,1.06,0,0,1-.71.22,1.71,1.71,0,0,1-1.71-1.9c0-1.08.53-1.77,1.46-1.77a1.91,1.91,0,0,1,.8.14C92.62,8.71,92.7,8.84,92.77,9.35Zm-7.18,2.77a1.48,1.48,0,0,1-.81-.22A2.11,2.11,0,0,1,84,10.13a1.66,1.66,0,0,1,.69-1.51,1.15,1.15,0,0,1,.57-.14,1.47,1.47,0,0,1,.85.25,2.08,2.08,0,0,1,.73,1.72,1.76,1.76,0,0,1-.54,1.44A1,1,0,0,1,85.59,12.12Zm-.25.28A2.08,2.08,0,0,0,87,11.56a2.11,2.11,0,0,0,.39-1.34,1.89,1.89,0,0,0-2-2A2.19,2.19,0,0,0,83.74,9a2,2,0,0,0-.4,1.24,2.28,2.28,0,0,0,.55,1.54A2,2,0,0,0,85.34,12.4ZM80.57,8.54a.87.87,0,0,1,1,1,.76.76,0,0,1-.41.74,2.45,2.45,0,0,1-.83,0s0,0,0,0c0-.5,0-1.37,0-1.59a.18.18,0,0,1,0-.1A1,1,0,0,1,80.57,8.54Zm-1.4,0,.35.05c.16,0,.21.11.21.29s0,.84,0,1.5c0,.35,0,1.23,0,1.37s-.07.33-.22.36l-.33,0a.21.21,0,0,0,0,.19c.12,0,.4,0,.82,0l.85,0a.21.21,0,0,0,0-.19l-.36-.06c-.14,0-.19-.09-.2-.31s0-.81,0-1.16c0,0,0,0,0,0h.46a.22.22,0,0,1,.16.09c.24.35.63,1,.88,1.28a.78.78,0,0,0,.31.26,2.65,2.65,0,0,0,1,.12s0-.16,0-.18a1,1,0,0,1-.74-.35,10.48,10.48,0,0,1-1-1.39s0,0,0,0a1.13,1.13,0,0,0,.73-1,1,1,0,0,0-1.15-1l-1.07,0-.73,0S79.15,8.47,79.17,8.5Zm-4.68,0a2.19,2.19,0,0,1,.33.06c.14,0,.17.15.18.31,0,.33,0,2,0,2.37.09.7.54,1.16,1.55,1.16a1.43,1.43,0,0,0,1.56-1.13A13.16,13.16,0,0,0,78.28,9c0-.31,0-.43.24-.48a1.67,1.67,0,0,1,.26-.06s0-.16,0-.18l-.68,0-.77,0a.19.19,0,0,0,0,.18l.33.05c.21,0,.28.13.29.45,0,.65,0,1.37,0,1.86,0,1-.57,1.18-1.11,1.18a1.09,1.09,0,0,1-1.11-.65,1.81,1.81,0,0,1-.12-.66c0-.34,0-1.21,0-1.84,0-.22.05-.29.2-.34l.3-.05a.28.28,0,0,0,0-.18l-.76,0-.82,0S74.46,8.48,74.49,8.5Zm-1.44,3.62a3.7,3.7,0,0,1-.44-.07c-.14,0-.19-.12-.21-.34s0-2.11,0-3.05c0,0,0-.05,0-.05h.9a.24.24,0,0,1,.25.18,2.36,2.36,0,0,1,.1.57.26.26,0,0,0,.21,0A7.18,7.18,0,0,1,74,8.27l-.07,0a1.39,1.39,0,0,1-.62.1H71a1.14,1.14,0,0,1-.52-.1s-.07,0-.07,0a9.3,9.3,0,0,1-.13,1.06s.17.08.2.06a3.39,3.39,0,0,1,.25-.6A.32.32,0,0,1,71,8.6h.83a0,0,0,0,1,0,.05c0,1.07,0,2.44,0,2.94,0,.3,0,.43-.25.47l-.45.06a.25.25,0,0,0,0,.19l1,0,1,0A.25.25,0,0,0,73.05,12.12ZM68.34,9c.1.28.35,1,.48,1.39a0,0,0,0,1,0,0h-1s0,0,0,0c.1-.34.37-1.06.48-1.38C68.31,9,68.33,9,68.34,9Zm-2,3.12a.21.21,0,0,0,0,.19c.12,0,.32,0,.69,0l.82,0a.31.31,0,0,0,0-.19l-.31,0c-.2-.05-.21-.12-.2-.23a8.05,8.05,0,0,1,.34-1s0-.06.07-.06h1.14s0,0,0,0c.12.29.31.83.39,1.11a.12.12,0,0,1-.07.16,2.3,2.3,0,0,1-.36.07.31.31,0,0,0,0,.19l.84,0,.79,0s0-.17,0-.19c-.46-.06-.51-.09-.69-.52S68.92,9,68.79,8.67a2,2,0,0,1-.1-.33h-.43a1.77,1.77,0,0,1-.11.36c-.14.41-.74,2-1.07,2.82C66.87,12,66.79,12.06,66.33,12.12ZM61.73,8.5a.91.91,0,0,1,.51.14.34.34,0,0,1,.17.31c0,1.35,0,2.4,0,2.73s-.1.34-.25.38a1.39,1.39,0,0,1-.34.06.31.31,0,0,0,0,.19c.14,0,.38,0,.77,0l.81,0a.41.41,0,0,0,0-.19,2.7,2.7,0,0,1-.39-.06c-.16,0-.25-.13-.26-.39s0-1.86,0-2.53h0c.38.48,2.15,2.69,2.49,3.18h.44c0-.21,0-.59,0-.88,0-1.22,0-2,0-2.53,0-.18,0-.29.22-.35a2,2,0,0,1,.28-.06.19.19,0,0,0,0-.18l-.68,0-.85,0a.23.23,0,0,0,0,.18,3.51,3.51,0,0,1,.43.07c.19,0,.23.16.24.34,0,.47,0,1.67,0,2.55h0c-.3-.36-1.62-2-2.28-2.78a2.44,2.44,0,0,1-.23-.35h-.29l-.8,0S61.71,8.48,61.73,8.5Z" transform="translate(0 0.06)"/><path class="cls-5" d="M108.08,18V16.72s0-.11,0-.17v0a.8.8,0,0,0,0-.33.23.23,0,0,0-.2-.08h0V16l.25,0,.28,0,.1-.07.1-.06.06,0a2.64,2.64,0,0,0,0,.29c0,.1,0,.22,0,.34V18a1.1,1.1,0,0,0,.07.53c0,.07.12.1.25.11v.09l-.27,0-.28,0-.29,0-.26,0v-.09c.13,0,.21,0,.25-.11a1.39,1.39,0,0,0,.07-.57m-4.56-.08v-.24a.87.87,0,0,0,0-.41.24.24,0,0,0-.19-.07V17.1l.21,0,.23,0,.11-.08.14-.07,0,0a2.69,2.69,0,0,0,0,.31c0,.12,0,.27,0,.46a1.78,1.78,0,0,0,.09.71.29.29,0,0,0,.3.17.38.38,0,0,0,.32-.16.78.78,0,0,0,.11-.45v-.32a1,1,0,0,0,0-.41s-.1-.07-.2-.07v-.09l.19,0H105a.38.38,0,0,1,.13-.09l.12-.07,0,0c0,.08,0,.16,0,.24v.77a1.64,1.64,0,0,0,0,.49.13.13,0,0,0,.14.1h.1l0,.09-.21.05a1,1,0,0,1-.24,0l-.09.06-.1.07-.07,0,0-.13V18.4a.69.69,0,0,1-.27.29.77.77,0,0,1-.4.1.63.63,0,0,1-.51-.18A1.19,1.19,0,0,1,103.52,17.91ZM100,17a.39.39,0,0,0-.36.22,1.11,1.11,0,0,0-.14.6,1.27,1.27,0,0,0,.13.65.4.4,0,0,0,.37.22.42.42,0,0,0,.38-.22,1.57,1.57,0,0,0,0-1.25A.44.44,0,0,0,100,17Zm1,.84a.92.92,0,0,1-.29.7,1.16,1.16,0,0,1-1.49,0,1,1,0,0,1,0-1.39,1.16,1.16,0,0,1,1.49,0A.91.91,0,0,1,101,17.83Zm-5.81.3h.12a.64.64,0,0,0,.17.39.45.45,0,0,0,.35.14.38.38,0,0,0,.24-.07.27.27,0,0,0,.09-.21.29.29,0,0,0-.09-.21A1.14,1.14,0,0,0,95.8,18a1.42,1.42,0,0,1-.44-.26.44.44,0,0,1-.1-.3.48.48,0,0,1,.2-.4.91.91,0,0,1,.54-.15,1.27,1.27,0,0,1,.37.05c.1,0,.14.09.14.14a.09.09,0,0,1,0,.05.09.09,0,0,1,0,.06.5.5,0,0,1,0,.16.57.57,0,0,1,0,.13H96.4a.63.63,0,0,0-.15-.34A.36.36,0,0,0,96,17a.3.3,0,0,0-.21.07.22.22,0,0,0-.08.19.23.23,0,0,0,.07.17.65.65,0,0,0,.23.15,1.74,1.74,0,0,1,.53.31.42.42,0,0,1,.11.31.51.51,0,0,1-.21.42.94.94,0,0,1-.57.16,1.3,1.3,0,0,1-.43-.05c-.11,0-.16-.09-.16-.16a.06.06,0,0,1,0,0,.25.25,0,0,1,0-.07,1.16,1.16,0,0,1,0-.18A.92.92,0,0,1,95.23,18.13Zm-6-.49H88.13a.13.13,0,0,0-.1,0,.19.19,0,0,0,0,.13.78.78,0,0,0,.2.55.64.64,0,0,0,.51.22.92.92,0,0,0,.28-.05.83.83,0,0,0,.23-.15l0,.09a.77.77,0,0,1-.35.25,1.24,1.24,0,0,1-.48.09.89.89,0,0,1-.68-.25.86.86,0,0,1-.25-.66,1,1,0,0,1,.27-.72.85.85,0,0,1,.66-.3.83.83,0,0,1,.56.2.58.58,0,0,1,.23.46s0,0,0,.06ZM88,17.51h.75a.14.14,0,0,0,0-.07.44.44,0,0,0-.12-.3.37.37,0,0,0-.27-.13.33.33,0,0,0-.27.14.44.44,0,0,0-.11.33ZM83.24,18V16.52a.64.64,0,0,0-.06-.33.23.23,0,0,0-.21-.08h0V16l.26,0,.27,0,.1-.07.09-.06.07,0a2.64,2.64,0,0,0,0,.29c0,.1,0,.22,0,.34v.75A.6.6,0,0,1,84,17a.8.8,0,0,1,.39-.09.6.6,0,0,1,.5.2,1.18,1.18,0,0,1,.15.68V18a1.35,1.35,0,0,0,.06.53.3.3,0,0,0,.24.11v.09l-.24,0-.26,0-.12,0-.18,0c0-.08,0-.19,0-.32V18a1.84,1.84,0,0,0-.08-.7.3.3,0,0,0-.29-.17.41.41,0,0,0-.33.16.84.84,0,0,0-.11.46v.34a1.2,1.2,0,0,0,.06.5.3.3,0,0,0,.24.11v.09l-.24,0-.3,0-.29,0-.23,0v-.09a.28.28,0,0,0,.23-.11,1.35,1.35,0,0,0,.06-.53ZM80,16.46h.18V17h.47v.18h-.47V18a.8.8,0,0,0,.09.44.28.28,0,0,0,.27.13.4.4,0,0,0,.15,0,.44.44,0,0,0,.15-.1l.07.08a.73.73,0,0,1-.28.19,1,1,0,0,1-.35.06.52.52,0,0,1-.45-.17,1.37,1.37,0,0,1-.12-.71v-.75h-.27v-.11a.59.59,0,0,0,.38-.17A.75.75,0,0,0,80,16.46ZM72.78,18V16.72a1,1,0,0,0,0-.17v0a.66.66,0,0,0,0-.33.22.22,0,0,0-.2-.08h0V16l.25,0L73,16l.1-.07.1-.06.06,0c0,.09,0,.19,0,.29s0,.22,0,.34V18a1.25,1.25,0,0,0,.07.53.3.3,0,0,0,.25.11v.09l-.26,0-.29,0-.29,0-.26,0v-.09a.32.32,0,0,0,.26-.11A1.47,1.47,0,0,0,72.78,18Zm-2.57-.35H69.12a.16.16,0,0,0-.11,0,.31.31,0,0,0,0,.13.78.78,0,0,0,.2.55.64.64,0,0,0,.51.22.92.92,0,0,0,.28-.05.83.83,0,0,0,.23-.15l.05.09a.77.77,0,0,1-.35.25,1.26,1.26,0,0,1-.49.09.88.88,0,0,1-.67-.25.86.86,0,0,1-.25-.66,1,1,0,0,1,.27-.72.85.85,0,0,1,.66-.3.83.83,0,0,1,.56.2.58.58,0,0,1,.23.46s0,0,0,.06ZM69,17.51h.75a.14.14,0,0,0,0-.07.44.44,0,0,0-.12-.3.35.35,0,0,0-.55,0,.48.48,0,0,0-.1.33Zm-2.81.13H65.09a.13.13,0,0,0-.1,0,.19.19,0,0,0,0,.13.83.83,0,0,0,.2.55.64.64,0,0,0,.51.22.87.87,0,0,0,.28-.05.61.61,0,0,0,.23-.15l.06.09a.86.86,0,0,1-.36.25,1.21,1.21,0,0,1-.48.09.91.91,0,0,1-.68-.25.86.86,0,0,1-.25-.66,1,1,0,0,1,.27-.72.85.85,0,0,1,.66-.3.82.82,0,0,1,.56.2.58.58,0,0,1,.23.46v.06S66.18,17.62,66.18,17.64ZM65,17.51h.75a.14.14,0,0,0,0-.07.44.44,0,0,0-.12-.3.35.35,0,0,0-.27-.13.33.33,0,0,0-.27.14.44.44,0,0,0-.11.33ZM61.28,18v-.82H61v-.12a.26.26,0,0,0,.26-.26v-.07a1,1,0,0,1,.29-.63.81.81,0,0,1,.59-.23.43.43,0,0,1,.24.07.2.2,0,0,1,.09.17.21.21,0,0,1,0,.13.38.38,0,0,1-.18.07.42.42,0,0,0-.11-.2A.23.23,0,0,0,62,16a.2.2,0,0,0-.19.14,1.44,1.44,0,0,0-.06.51V17h.52v.19h-.52v.88a1.26,1.26,0,0,0,.07.52.39.39,0,0,0,.28.1v.09l-.27,0-.31,0-.32,0-.22,0v-.09c.12,0,.2,0,.24-.11a1.32,1.32,0,0,0,.06-.53Z" transform="translate(0 0.06)"/></g></g></svg>