<svg xmlns="http://www.w3.org/2000/svg" xmlns:xlink="http://www.w3.org/1999/xlink" viewBox="0 0 959.55 684.95"><defs><style>.cls-1{fill:none;clip-rule:evenodd;}.cls-2{clip-path:url(#clip-path);}.cls-3{fill:url(#linear-gradient);}</style><clipPath id="clip-path" transform="translate(0 1.82)"><path class="cls-1" d="M651.85,621.93c2.54,1.23,14,2.39,17.32,2.4,6.43,0,12,1.19,19.12,1.19,11.43,0,46.12-2.93,59.32-4.62,10.13-1.29,22.87-1.36,33.29-1.36,6.08,0,10.41,1.8,15.53,1.8-.27-3.25-3.28-6.56-4.74-9-6-9.94-17.6-21.87-28.3-27.26-2.5-1.26-8.21-3.47-10.59-2.62-.12,0-26.81,15.3-36.77,19.41-7,2.89-11.65,5.55-19.74,8.35-10.61,3.67-27.83,9.36-39.06,9.93-2.51.13-4.26.26-5.38,1.78m-491.13-.59c5.12,0,9.46-1.8,15.54-1.8a373.9,373.9,0,0,1,54,3.41c9.46,1.29,16.09.91,25,1.88l16.64.69c8.07,0,29.4-1.8,37-3.59-1-1.4-2.57-1.63-4.81-1.76-6.5-.4-12-1.63-18.45-3.06-3.46-.76-7.72-2-11.26-3.08-18.45-5.88-28-10.48-45.2-18.72a26.57,26.57,0,0,1-2.39-1.2l-20.44-11.27c-5-2.48-15.75,4-19.77,7a84.09,84.09,0,0,0-17.74,18.1C166.62,610.89,161,618,160.72,621.34Zm441.53-30.47c4.13,0,22.23-7.64,28.52-10.33,3.21-1.37,6.19-2.59,9.13-4,29.54-14.24,56-27.11,82-48.21,9.69-7.87,11.66-9.35,20.58-18.26l6.27-6.87a107.82,107.82,0,0,0,16-22.86L785.52,436C789,427.84,809,384.4,809,380.56s-29.3,1.48-30,1.63a118.63,118.63,0,0,0-19.81,5.87c-1.86.75-2.41,1-4.31,1.67l-13.56,6.17c-8.7,4.87-23.42,13.56-31,20.35-2.27,2-4.65,3.63-6.86,5.68-15.21,14.14-24.78,23.66-37,40.05l-27.78,42.73c-.91,1.52-1.45,2.82-2.29,4.28a418.2,418.2,0,0,0-21.47,43.06c-2.51,5.67-5.13,12.64-7.11,18.57C606.25,575,602.6,586.78,602.25,590.87Zm-243.16,0c0-6.41-6.2-22.31-8.74-29.5-10-28.18-34.05-67.75-51-91.79-11-15.57-22.6-28.11-36.29-41.38l-14-11.71c-5.07-4.05-9.85-7.28-15.33-11l-34.63-17.35c-19.73-6.47-27.87-8.82-49.74-8.82-3.45,0-.72,3.93,1.1,8.46,1.31,3.24,2.68,5.88,4,9.12l16.27,36.31c2.9,6.29,5.47,12.41,8.49,18.4,10.48,20.84,12.9,32.59,31.31,52.93l.3.31.28.3,10.43,10.48c13,10.38,21.51,18.73,37.85,28.48L284.6,559c11.62,6.25,23.52,11.83,35.85,17.31,3.27,1.46,5.94,2.56,9.19,4s6.13,2.36,9.33,3.81C343.06,585.93,355.19,590.87,359.09,590.87Zm273-102.77c2.47-.89,7.25-9.37,8.72-11.59s2.61-3.7,4.19-6l17.82-23.4c6.08-7.74,12.62-14.67,19.32-21.91L700.42,407l20.05-16.4c4.12-3.09,7.86-5.68,12.27-8.63s8.63-5.5,12.94-8a195.1,195.1,0,0,1,35.5-15.88c18.15-6,35.48-8.05,54.69-8.05,7.8,0,23.61,2.35,28.68,4.78-.51,1.91-.58,1.28-1.85,2.34-5.46,4.58-10,10.64-14.21,16.27l-7.13,10.19c-2.46,3.72-4.79,6.93-7.09,10.83-9.73,16.46-19.46,33-28.28,50a267.87,267.87,0,0,1-35.11,52.12l-21.49,22.72c-17,17-38.63,32.83-59.34,45.23a394.8,394.8,0,0,1-71.29,33.86l-46.49,14.44c-2.6.64-5.2.79-6.46,2.51,1.79.87,9.26,1.54,12,1.78l20.31,1.19c7.09-.1,8.39,3.72,13.72,7.79,17,13,30.41,19.7,49.77,27.91a146.31,146.31,0,0,0,27.25,8.6c15.29,3.15,32.23,5.91,50.85,5.91,9.67,0,18-1.21,27.48-1.2l31.07-.6c8.48,0,15.39.65,23.3.6,11.57-.07,22.07,1.63,33.2,3.25,8.07,1.17,16.83,2.49,24.33,5.54,2,.82,2.57,1.31,5.2,1.37-.15-7.26-4.12-16.19-6.34-22.93a161.37,161.37,0,0,0-8.39-20.89,260.6,260.6,0,0,0-19-32.42,119.4,119.4,0,0,0-17.23-19.81,108.51,108.51,0,0,0-36-22.51c-5.32-2-17.63-5.72-24.16-5.72,3.33-5,9.4-7.9,13.6-12.08l28.67-28.68c1.36-1.46,1.54-2.13,3-3.6,6.3-6.48,12-14.2,17.39-21.44a272.66,272.66,0,0,0,22.59-34.77c11.67-21.88,26.35-41.79,41.17-61.6L917.3,370a46.39,46.39,0,0,1,3.27-3.31c8.54-8.43,16-18.4,25.58-25.8l13.4-12.29-9.16-5.18c-1.81-.91-3-1.56-4.78-2.4a154.91,154.91,0,0,0-28.12-9.52,229.31,229.31,0,0,0-100.1-2c-19.91,4-40.74,10.17-58.8,18.87l-21.06,11.21-30,22c-1.26,1.16-2,2.14-3.28,3.3-1.45,1.34-2.13,1.55-3.6,3-1.25,1.21-2,2.07-3.28,3.3a223,223,0,0,0-32,39.69c-1,1.59-1.46,2.52-2.44,4.13a251.71,251.71,0,0,0-15.89,29.52C642.67,454.32,632.13,477.23,632.13,488.1ZM611.82,617.75c11.92,0,31.64-2.8,43.73-5.85,6.83-1.72,13.51-3.36,19.67-5.42,21.11-7.06,41.3-15.84,59.93-27.31l23.05-14.59c3,0,9.33,4,11.94,5.38a136.51,136.51,0,0,1,21.61,14.24c1.82,1.46,2.79,2.83,4.68,4.28,4.43,3.37,5.35,5.55,8.53,8.8,7.73,7.92,20.47,30.85,21.35,41.38a27.84,27.84,0,0,1-5.54-1c-23.95-4.54-40.87-.49-63.75,1-12.73.87-22.84,2.37-37.06,2.37a263.32,263.32,0,0,1-58.68-7c-17.65-4.16-27.29-7.63-43.86-13.5C615.26,619.75,613,619.31,611.82,617.75ZM0,329.77c2.15.57,1.87,1.12,3.51,2.47C5,333.46,5.59,334,7,335.29s1.9,1.34,3.29,2.68c8.69,8.4,17.76,16.51,26,25.4L48.4,377c6.25,8.16,13.68,16.22,20.07,24.74l5.5,7.64c6.9,10.13,14.62,20.13,20.43,30.95l14.08,24.16c8,13.29,17.67,25.22,27.14,37.39l8.83,10.3a272.64,272.64,0,0,0,22.1,22.7l17.29,15c1.52,1.19,2.68,1.56,3.17,3.4-10.28,0-23.08,5.1-32.1,9.12a87.56,87.56,0,0,0-16.2,9.5c-27.37,20.26-46.31,51-57.22,83.78l-5,16c-2.6,11.56,0,2.91,26.81-.68,6.2-.83,11.69-1.91,18.54-2.37,14-.95,28.9-1.78,43-1.78,10,0,18.62.61,28.08.6,20.06,0,33,2.7,54.48-.49,4.38-.65,8.53-1.06,12.49-1.85,18.54-3.68,37.91-9.17,53.92-17.17a239.37,239.37,0,0,0,26.92-15.5,179.69,179.69,0,0,0,16-12.65c2.84-2.4,8.06-.87,12.76-1.58,6.7-1,20.55-.15,25.94-2.74-1.19-1.63-3.53-1.81-5.9-2.46s-4.69-1.22-7.12-1.84c-4.32-1.11-9-2.37-13.49-3.84l-32.55-11.07c-2-.74-4.31-1.51-6.58-2.37-1.73-.66-3.84-1.62-5.85-2.52-25.87-11.54-51-23.34-74-40.08L230,536c-3.49-2.58-6.1-5.12-9.34-8-15.86-14.11-29.32-28-42.39-45.44a312.78,312.78,0,0,1-27.06-43.43c-12.67-24.35-26.37-48.56-43.35-70.18-3.87-4.91-11-11.3-12.81-14.08,9.52-4.56,28.44-4.78,39.44-4.78a131.34,131.34,0,0,1,35.78,5.44c12.32,3.53,22.78,7.91,33.78,12.83,15.4,6.88,45.16,27.3,58.15,40.43,5.21,5.27,10.65,10,15.53,15.54,1.7,1.93,3.54,3.5,5.39,5.37L295,443.42c1.06,1.23,1.45,1.71,2.44,2.94a471.28,471.28,0,0,1,28.85,39.26c1,1.58.87,1.94,2.9,2.48-.08-3.52-1.51-7.25-2.39-10.15-1-3.17-2-6.68-3.24-9.91-5.48-14.18-10.78-27.34-18.08-40.48-5.32-9.59-11.48-18.72-17.63-27.77a154.48,154.48,0,0,0-14.37-17.9,269,269,0,0,0-26.6-25.37L235.66,348a209.93,209.93,0,0,0-37.3-21.26l-14.1-5.61c-3.31-1.15-6.43-2.37-9.32-3.23-2.24-.66-2.63-.89-5-1.58C128.52,304.27,85,300.19,42.63,311.45A184.8,184.8,0,0,0,4,326C1.4,327.32.25,326.81,0,329.77ZM240.78,641.05c-13.67,0-24.28-1.4-36.49-2.34-24.76-1.92-39.7-5.46-64.91-1.08-1.43.25-3.8.89-5.54,1,.2-9.14,11.43-28.35,17.15-36,1.35-1.81,2.49-3.3,3.93-5s2.85-2.64,4.35-4.61l9-8.37c3.57-2.77,6.39-5.19,10.17-7.76,3.06-2.08,20.4-12.29,23.55-12.29,1.3,0,13.44,8.34,15.41,9.68A215,215,0,0,0,237,585.68c1.86,1,2.19,1.46,4.21,2.37l4,2c27.43,14.79,73.6,27.69,104.35,27.69-1.35,1.87-8.9,3.89-11.34,4.79C308.56,633.4,273.72,641.05,240.78,641.05Zm42.43-357.88,1.16,26.32c.2,2.43-.11,4.43.26,6.91,2.2,14.67,8.45,30.15,14.91,43.05,3.36,6.71,6.39,13,10,19.29l10.73,17.95c1.92,2.9,3.61,5.64,5.62,8.71l8.63,13.48c1.05,1.51,1.89,2.61,3,4.21l57.88,87.31,10.55,18.72c4.89,9.89,9.88,19.66,13.61,30,8.11,22.5,12.81,44.92,8.14,69.81-.4,2.09-1,3.27-1,6.14,5.08-1.36,11.29-13.85,13-18.09,14.14-35.49-4.36-79.5-18.37-111l-8.75-18.13c-8.91-17.81-18.71-35.23-29-52.26l-7.31-12.42c-8.41-14-17.91-27.48-25.64-41.87-.95-1.78-1.44-2.28-2.4-4.17-4.68-9.23-9.27-18.28-12.56-28.07-2.34-7-4.58-12.73-6.69-20.19a204,204,0,0,1-5-21.86c-.64-3.9-1.23-7.7-1.82-11.91-.76-5.41-1.79-13-1.78-18.54a49,49,0,0,0-.14-6.42c-.88-6.4.44-18.34.75-25.26.46-9.81,3.94-25.33,6.22-34.41a193.91,193.91,0,0,1,6.42-20.47c7.89-21.12,16.57-34.69,28.47-52.19,12.77-18.76,32.8-36.54,51.16-49.82,1.63-1.18,2.65-1.7,4.27-2.89,22.48-16.37,56.49-31.25,83.05-38.84,3.32-.94,7.34-2.73,11-2.73,0,4.17-.59,5.83-.59,10.16a339.47,339.47,0,0,0,1.84,36.39l2.79,16.33c.45,2.05.53,3.47,1,5.56l11.31,40.07c6.13,18.69,14.69,36.07,23.66,53.41l9.69,16c6.44,10.29,13.29,20.41,21.26,29.53l18.14,20.09c18.31,22.86,31,47.58,31,85.52a142.56,142.56,0,0,1-2.86,28.81c-4,17.23-9.51,36-17.81,51.61-2.24,4.18-8.57,12-11.59,14,1.19-5.11,5-11.3,6.92-16.39,2.32-6.11,3.95-11.51,6-17.89,3.63-11.26,6.79-29.45,6.79-41,0-20.74-.74-36.15-7.25-55.49a202.33,202.33,0,0,0-23.7-48.6l-21.19-26.61c-1.18-1.33-1.58-2-2.69-3.28l-8.5-10c-1.72-2.2-3.57-4.25-5.52-6.43l-5.33-6.63c-7.15-8.79-14.26-17.79-20.56-27.23-3.4-5.1-6.24-10-9.26-15.23-.82-1.4-1.16-2.31-2-4-10.89-21-13.94-38.44-16.89-61.36-1.35-10.45-.77-21.51-.77-32.1,0-6.17,2.23-7-10.78.57l-14.13,8c-14.26,8.49-33.51,21.62-45.73,32.54-5.24,4.68-19.65,16.46-23.42,21.39l-16,17.5c-19.1,23.45-30.69,44-39.87,72.45-4.87,15.07-6.05,31.62-6.05,47.73,0,9.12,1.57,18.23,2.81,25.86,4.31,26.44,16.62,48.83,28.26,72.12L385,405.45c10.46,20.93,23.76,46.06,33.08,67.89.81,1.88,1.52,3,2.37,4.8l11,24.88c11.5,26.18,31.29,72.94,21.88,102-.34,1-.62,2-.86,2.75-1,3.34-2,6,2.26,2.88l32.36-25c1.54-1.24,2.09-2,3.84-3.33L513.69,562c1.32-1.34,2.24-2.25,3.58-3.59l21.48-21.53a39.25,39.25,0,0,1,3.3-3.86,40.4,40.4,0,0,0,3.54-3.64l9.88-11.64c1.25-1.56,2.09-2.47,3.26-3.9,6.49-7.95,13.15-16.34,18.55-25.07s11.57-17.39,16.21-26.8a19,19,0,0,1,6.38-8,74.15,74.15,0,0,0,7.32-7,156.07,156.07,0,0,0,19.44-23.56,151.7,151.7,0,0,0,14.8-28.23l3.77-10.57c1.23-3.85,2-7.5,2.95-11.39,6.64-28.21,2.63-59.43-7.65-85.33a159.83,159.83,0,0,0-23-39.18L596.16,220c-3.44-5.14-6.38-10.26-9.47-15.63s-5.64-10.2-8.53-16c-20.63-41.26-35.65-91.82-35.65-138.81,0-8.4.09-18,1.08-25.81C546.73-1,551.54-1.82,540.24,1.28c-25.63,7-44.08,14.75-68,24.63-2.43,1-3.71,1.83-6.14,2.81L407.23,62.45c-2.08,1.51-3.64,2.45-5.63,3.93-7.14,5.27-14.54,10.58-21.16,16.48-1.54,1.37-3.22,2.78-4.88,4.08-7.88,6.16-22,20.27-27.91,27.65-1.63,2-2.72,3.12-4.36,5.21L320,152.06c-2.56,4.27-4.66,7.88-6.9,12.22-1.08,2.07-2,3.39-3.2,5.76A266.82,266.82,0,0,0,292,217.32c-2.69,9.48-4.4,19.91-6.17,30.86-.9,5.54-.82,10.94-1.62,16.9A144.84,144.84,0,0,0,283.21,283.17Z"/></clipPath><linearGradient id="linear-gradient" x1="471.42" y1="679.4" x2="488.22" y2="1.88" gradientUnits="userSpaceOnUse"><stop offset="0" stop-color="#84c341"/><stop offset="1" stop-color="#98c93c"/></linearGradient></defs><g id="Layer_2" data-name="Layer 2"><g id="Layer_1-2" data-name="Layer 1"><g class="cls-2"><rect class="cls-3" width="959.55" height="684.95"/></g></g></g></svg>